<svg width="22" height="24" viewBox="0 0 22 24" fill="none" xmlns="http://www.w3.org/2000/svg">
<g clip-path="url(#clip0_9_194)">
<path d="M18.8983 4.60999C18.4393 4.099 17.8944 3.69364 17.2945 3.41708C16.6947 3.14052 16.0518 2.99817 15.4025 2.99817C14.7532 2.99817 14.1103 3.14052 13.5105 3.41708C12.9107 3.69364 12.3657 4.099 11.9067 4.60999L10.9541 5.66999L10.0015 4.60999C9.07438 3.5783 7.8169 2.9987 6.50572 2.9987C5.19453 2.9987 3.93705 3.5783 3.0099 4.60999C2.08276 5.64169 1.56189 7.04096 1.56189 8.49999C1.56189 9.95903 2.08276 11.3583 3.0099 12.39L3.96249 13.45L10.9541 21.23L17.9457 13.45L18.8983 12.39C19.3575 11.8792 19.7218 11.2728 19.9704 10.6053C20.2189 9.93789 20.3468 9.22248 20.3468 8.49999C20.3468 7.77751 20.2189 7.0621 19.9704 6.39464C19.7218 5.72718 19.3575 5.12075 18.8983 4.60999V4.60999Z" stroke="#6156E2" stroke-width="2" stroke-linecap="round" stroke-linejoin="round"/>
</g>
<defs>
<clipPath id="clip0_9_194">
<rect width="21.568" height="24" fill="white" transform="translate(0.170166)"/>
</clipPath>
</defs>
</svg>
